<svg xmlns="http://www.w3.org/2000/svg" viewBox="0 0 739 75.94"><defs><style>.cls-1{fill:#e74315;}.cls-2{fill:#eb3300;}.cls-3{fill:#382e2c;}</style></defs><title>logo_RGB</title><g id="Wide_color"><rect class="cls-1" x="728.48" y="63.73" width="10.47" height="10.47"/><rect class="cls-2" x="728.56" y="63.78" width="10.44" height="10.44" transform="translate(1467.56 138) rotate(180)"/><path class="cls-3" d="M132,37.87a35.27,35.27,0,0,1,3.14-14.76,38.25,38.25,0,0,1,8.52-12,41.66,41.66,0,0,1,44.73-7.7,38.68,38.68,0,0,1,13.07,9.34L191,18.39a27.48,27.48,0,0,0-8.58-5.82,26.29,26.29,0,0,0-10.56-2.13,27.32,27.32,0,0,0-10.78,2.13,27.72,27.72,0,0,0-8.78,5.87,27.15,27.15,0,0,0-8.06,19.43A27.2,27.2,0,0,0,152.3,57.4a27.69,27.69,0,0,0,8.78,5.86,27.38,27.38,0,0,0,30-5.81l10.36,5.76a39.43,39.43,0,0,1-13.07,9.25,41.27,41.27,0,0,1-44.73-7.71,38,38,0,0,1-8.52-12.07A35.66,35.66,0,0,1,132,37.87Z"/><path class="cls-3" d="M246.34.1a40.87,40.87,0,0,1,28.19,11.08,38.27,38.27,0,0,1,8.53,12A35.27,35.27,0,0,1,286.2,38a35.66,35.66,0,0,1-3.14,14.81,38,38,0,0,1-8.53,12.07,41.24,41.24,0,0,1-56.38,0,37.84,37.84,0,0,1-8.53-12.07A35.66,35.66,0,0,1,206.48,38a35.27,35.27,0,0,1,3.14-14.76,38.11,38.11,0,0,1,8.53-12A40.82,40.82,0,0,1,246.34.1ZM218.72,38a27.31,27.31,0,0,0,8.06,19.53,27.92,27.92,0,0,0,8.78,5.86,27.7,27.7,0,0,0,30.29-5.86,27.78,27.78,0,0,0,5.86-8.75A27.12,27.12,0,0,0,273.85,38a26.93,26.93,0,0,0-2.14-10.69,27.74,27.74,0,0,0-5.86-8.74,28,28,0,0,0-30.29-5.87,28,28,0,0,0-8.78,5.87A27.26,27.26,0,0,0,218.72,38Z"/><path class="cls-3" d="M298.54,1.59h22.7a42.58,42.58,0,0,1,15.59,2.78A38,38,0,0,1,349.12,12a34.31,34.31,0,0,1,8.05,11.53A35.87,35.87,0,0,1,360.05,38a36.18,36.18,0,0,1-2.88,14.51A34.41,34.41,0,0,1,349.12,64a38,38,0,0,1-12.29,7.65,42.37,42.37,0,0,1-15.59,2.78h-22.7ZM310.88,64H320q11.72,0,19.62-7.16T347.5,38q0-11.53-7.8-18.74T320.19,12h-9.31Z"/><path class="cls-3" d="M417.58,64V74.44H373.33V1.59H416V12H385.57V32.1h28.56V42.54H385.57V64Z"/><path class="cls-3" d="M473.24,1.59V12H444.15V32.7H470.2V43.14H444.15v31.3H431.92V1.59Z"/><path class="cls-3" d="M497.92,1.59V74.44H485.68V1.59Z"/><path class="cls-3" d="M643.33,64V74.44H599.08V1.59h42.68V12H611.32V32.1h28.56V42.54H611.32V64Z"/><path class="cls-3" d="M656.83,1.59h22.7a42.48,42.48,0,0,1,15.58,2.78A37.77,37.77,0,0,1,707.4,12a34.2,34.2,0,0,1,8.06,11.53A35.87,35.87,0,0,1,718.34,38a36.18,36.18,0,0,1-2.88,14.51A34.3,34.3,0,0,1,707.4,64a37.75,37.75,0,0,1-12.29,7.65,42.28,42.28,0,0,1-15.58,2.78h-22.7ZM669.17,64h9.1q11.72,0,19.62-7.16T705.78,38q0-11.53-7.79-18.74T678.48,12h-9.31Z"/><polygon class="cls-3" points="581.51 63.78 581.51 1.59 569.27 1.59 569.26 46.5 581.51 63.78"/><polygon class="cls-3" points="554.25 36.64 529.2 1.59 514.98 1.59 514.98 74.44 527.21 74.44 527.21 18.37 567.28 74.44 581.03 74.44 554.25 36.64"/><polygon class="cls-2" points="37.92 1.2 23.43 1.2 0 37.7 23.18 74.2 37.67 74.2 14.49 37.7 37.92 1.2"/><polygon class="cls-3" points="84.16 1.21 84.17 1.2 84.16 1.2 69.68 1.2 69.67 1.2 69.67 1.21 37.58 51.49 44.8 62.87 76.9 12.59 92.84 37.7 69.42 74.2 83.91 74.2 107.34 37.7 84.16 1.21"/></g></svg>